<?xml version="1.0" encoding="iso-8859-1"?>
<!-- Generator: Adobe Illustrator 19.2.1, SVG Export Plug-In . SVG Version: 6.00 Build 0)  -->
<svg version="1.1" xmlns="http://www.w3.org/2000/svg" xmlns:xlink="http://www.w3.org/1999/xlink" x="0px" y="0px"
	 viewBox="0 0 40 40" style="enable-background:new 0 0 40 40;" xml:space="preserve">
<g id="Layer_1">
	<line style="fill:none;stroke:#7496C4;stroke-width:2;stroke-miterlimit:10;" x1="37" y1="21.357" x2="37" y2="11.857"/>
	<line style="fill:none;stroke:#7496C4;stroke-width:2;stroke-miterlimit:10;" x1="3" y1="21.357" x2="3" y2="11.857"/>
	<g>
		<path style="fill:#8BB7F0;" d="M16.5,22.5V13c0-5.338,2.513-9.645,3.501-11.133C20.991,3.349,23.5,7.634,23.5,13v9.5H16.5z"/>
		<path style="fill:#4E7AB5;" d="M20.004,2.797C21.114,4.619,23,8.393,23,13v9h-6v-9C17,8.432,18.894,4.632,20.004,2.797 M20,1
			c0,0-4,5.125-4,12c0,2.895,0,10,0,10h8c0,0,0-4.664,0-10C24,6.084,20,1,20,1L20,1z"/>
	</g>
	<g>
		<rect x="24.5" y="32.714" style="fill:#DCD5F2;" width="4" height="5.786"/>
		<path style="fill:#8B75A1;" d="M28,33.214V38h-3v-4.786H28 M29,32.214h-5V39h5V32.214L29,32.214z"/>
	</g>
	<g>
		<rect x="11.5" y="32.714" style="fill:#DCD5F2;" width="4" height="5.786"/>
		<path style="fill:#8B75A1;" d="M15,33.214V38h-3v-4.786H15 M16,32.214h-5V39h5V32.214L16,32.214z"/>
	</g>
	<g>
		<polygon style="fill:#8BB7F0;" points="4.5,31.653 4.5,24.5 35.5,24.5 35.5,31.653 20,37.466 		"/>
		<g>
			<path style="fill:#4E7AB5;" d="M35,25v6.307l-15,5.625L5,31.307V25H35 M36,24H4v8l16,6l16-6V24L36,24z"/>
		</g>
	</g>
	<g>
		<path style="fill:#C2E8FF;" d="M37,34.5c-0.827,0-1.5-0.673-1.5-1.5V20.5h3V33C38.5,33.827,37.827,34.5,37,34.5z"/>
		<path style="fill:#7496C4;" d="M38,21v12c0,0.551-0.449,1-1,1s-1-0.449-1-1V21H38 M39,20h-4v13c0,1.105,0.895,2,2,2
			c1.105,0,2-0.895,2-2V20L39,20z"/>
	</g>
	<g>
		<circle style="fill:#F78F8F;" cx="37" cy="11" r="1.5"/>
		<g>
			<path style="fill:#C74343;" d="M37,10c0.551,0,1,0.449,1,1s-0.449,1-1,1s-1-0.449-1-1S36.449,10,37,10 M37,9
				c-1.105,0-2,0.895-2,2s0.895,2,2,2s2-0.895,2-2S38.105,9,37,9L37,9z"/>
		</g>
	</g>
	<g>
		<path style="fill:#C2E8FF;" d="M3,34.5c-0.827,0-1.5-0.673-1.5-1.5V20.5h3V33C4.5,33.827,3.827,34.5,3,34.5z"/>
		<path style="fill:#7496C4;" d="M4,21v12c0,0.551-0.449,1-1,1s-1-0.449-1-1V21H4 M5,20H1v13c0,1.105,0.895,2,2,2s2-0.895,2-2V20
			L5,20z"/>
	</g>
	<g>
		<circle style="fill:#F78F8F;" cx="3" cy="11" r="1.5"/>
		<g>
			<path style="fill:#C74343;" d="M3,10c0.551,0,1,0.449,1,1s-0.449,1-1,1s-1-0.449-1-1S2.449,10,3,10 M3,9c-1.105,0-2,0.895-2,2
				s0.895,2,2,2s2-0.895,2-2S4.105,9,3,9L3,9z"/>
		</g>
	</g>
	<g>
		<path style="fill:#C2E8FF;" d="M20,34.5c-3.584,0-6.5-2.916-6.5-6.5v-3c0-1.379,1.121-2.5,2.5-2.5h8c1.379,0,2.5,1.121,2.5,2.5v3
			C26.5,31.584,23.584,34.5,20,34.5z"/>
		<g>
			<path style="fill:#4E7AB5;" d="M24,23c1.103,0,2,0.897,2,2v3c0,3.308-2.692,6-6,6s-6-2.692-6-6v-3c0-1.103,0.897-2,2-2H24 M24,22
				h-8c-1.657,0-3,1.343-3,3v3c0,3.866,3.134,7,7,7s7-3.134,7-7v-3C27,23.343,25.657,22,24,22L24,22z"/>
		</g>
	</g>
	<g>
		<path style="fill:#C2E8FF;" d="M16.5,22.5V22c0-1.93,1.57-3.5,3.5-3.5s3.5,1.57,3.5,3.5v0.5H16.5z"/>
		<path style="fill:#4E7AB5;" d="M20,19c1.654,0,3,1.346,3,3h-6C17,20.346,18.346,19,20,19 M20,18c-2.209,0-4,1.791-4,4v1h8v-1
			C24,19.791,22.209,18,20,18L20,18z"/>
	</g>
</g>
<g id="Layer_2">
</g>
</svg>
